<svg x="0px" y="0px" viewBox="0 0 100 125"><path d="M36.4,58.1c1.5,0,2.9-0.6,3.9-1.6c1-1,1.6-2.4,1.6-3.9c0-1.5-0.6-2.9-1.6-3.9c-2.2-2.2-5.6-2.2-7.8,0c-1,1-1.6,2.4-1.6,3.9  c0,1.5,0.6,2.9,1.6,3.9C33.5,57.6,34.9,58.1,36.4,58.1z M33.9,50.1c0.7-0.7,1.6-1,2.5-1s1.8,0.3,2.5,1c0.7,0.7,1,1.5,1,2.5  c0,0.9-0.4,1.8-1,2.5c-1.3,1.3-3.6,1.3-5,0c-0.7-0.7-1-1.5-1-2.5C32.9,51.7,33.2,50.8,33.9,50.1z"/><path d="M25.7,78.8c1.1,0,2.2-0.4,3-1.2c0.8-0.8,1.2-1.9,1.2-3s-0.4-2.2-1.2-3c-1.6-1.6-4.3-1.6-6,0c-1.6,1.6-1.6,4.3,0,6  C23.5,78.4,24.6,78.8,25.7,78.8z M24.1,73c0.9-0.9,2.3-0.9,3.1,0c0.4,0.4,0.6,1,0.6,1.6c0,0.6-0.2,1.1-0.6,1.6  c-0.9,0.9-2.3,0.9-3.1,0C23.2,75.3,23.2,73.9,24.1,73z"/><path d="M49.6,65.4c0.8,0.8,1.9,1.2,3,1.2c1.1,0,2.2-0.4,3-1.2c1.6-1.6,1.6-4.3,0-6c-1.6-1.6-4.3-1.6-6,0c-0.8,0.8-1.2,1.9-1.2,3  C48.3,63.5,48.8,64.6,49.6,65.4C49.6,65.4,49.6,65.4,49.6,65.4z M51,60.8c0.4-0.4,1-0.6,1.6-0.6s1.1,0.2,1.6,0.6  c0.9,0.9,0.9,2.3,0,3.1c-0.8,0.8-2.3,0.8-3.1,0h0c-0.4-0.4-0.6-1-0.6-1.6S50.6,61.3,51,60.8z"/><path d="M42.9,45.5c1.3,0,2.6-0.5,3.5-1.4c1.9-1.9,1.9-5,0-7c-1.9-1.9-5.1-1.9-7,0c-1.9,1.9-1.9,5.1,0,7  C40.3,45,41.5,45.5,42.9,45.5z M40.8,38.5c1.1-1.1,3-1.1,4.1,0c1.1,1.1,1.1,3,0,4.1c-1.1,1.1-3,1.1-4.1,0  C39.6,41.5,39.6,39.7,40.8,38.5z"/><path d="M38.9,62c-1.3,0-2.6,0.5-3.5,1.4c-1.9,1.9-1.9,5,0,7c1,1,2.2,1.4,3.5,1.4c1.3,0,2.5-0.5,3.5-1.4c1.9-1.9,1.9-5.1,0-7  C41.5,62.5,40.3,62,38.9,62z M41,69c-1.1,1.1-3,1.1-4.1,0c-1.1-1.1-1.1-3,0-4.1c1.1-1.1,3-1.1,4.1,0C42.2,66,42.2,67.8,41,69z"/><path d="M58.9,56.6c1.7,0,3.3-0.7,4.5-1.9c1.2-1.2,1.9-2.8,1.9-4.5s-0.7-3.3-1.9-4.5c-1.2-1.2-2.8-1.9-4.5-1.9s-3.3,0.7-4.5,1.9  c-1.2,1.2-1.9,2.8-1.9,4.5s0.7,3.3,1.9,4.5C55.6,55.9,57.2,56.6,58.9,56.6z M55.8,47.1c0.8-0.8,1.9-1.3,3.1-1.3  c1.2,0,2.3,0.5,3.1,1.3s1.3,1.9,1.3,3.1s-0.5,2.3-1.3,3.1s-1.9,1.3-3.1,1.3c-1.2,0-2.3-0.5-3.1-1.3c-0.8-0.8-1.3-1.9-1.3-3.1  S55,47.9,55.8,47.1z"/><path d="M19.2,86.2c0.6,0,1.2-0.1,1.8-0.4l63.8-26.3c0.3-0.1,0.6-0.5,0.6-0.8c0-0.5,0.8-13-15.2-29.1c-16-16-28.4-15.1-28.9-15  c-0.4,0-0.7,0.3-0.8,0.6L14.9,79.9c-0.7,1.7-0.3,3.6,1.1,5C16.9,85.8,18,86.2,19.2,86.2z M42.1,16.6c2.6,0,13.4,1.1,26.7,14.5  c13.4,13.4,14.5,24.3,14.6,26.9l-7.8,3.2c-0.4-1.4-1.2-2.7-2-4c-0.8-1.2-1.5-2.4-1.8-3.6c-0.3-1.1-0.2-2.5-0.2-3.9  c0.1-2.1,0.2-4.3-0.9-6.2c-1-1.8-2.9-2.8-4.8-3.7c-1.3-0.7-2.6-1.3-3.4-2.2c-0.9-0.9-1.5-2.1-2.2-3.4c-1-1.8-2-3.7-3.7-4.8  c-1.9-1.1-4-1-6.2-0.9c-1.4,0.1-2.8,0.1-3.9-0.2c-1.2-0.3-2.3-1.1-3.6-1.8c-1.2-0.8-2.5-1.6-3.8-2L42.1,16.6z M16.8,80.7l21.4-54.3  c0,0,0.1,0,0.1,0c1.1,0.3,2.2,1,3.3,1.8c1.3,0.8,2.7,1.7,4.1,2.1c1.4,0.4,3,0.3,4.5,0.2c1.9-0.1,3.7-0.2,5.1,0.6  c1.3,0.7,2.1,2.3,3,4c0.7,1.4,1.5,2.8,2.6,3.9s2.5,1.9,3.9,2.6c1.7,0.9,3.2,1.7,4,3c0.8,1.3,0.7,3.2,0.6,5.1  c-0.1,1.5-0.1,3.1,0.2,4.5c0.4,1.5,1.2,2.8,2.1,4.1c0.8,1.3,1.6,2.5,1.8,3.7L20.2,84c-1.2,0.5-2.2,0-2.8-0.5  C16.8,82.9,16.3,81.8,16.8,80.7z"/></svg>