<svg version="1.1" x="0px" y="0px" viewBox="0 0 100 125" style="enable-background:new 0 0 100 100;"><style type="text/css">
	.st0{fill:none;stroke:#000000;stroke-width:2;stroke-linecap:round;stroke-linejoin:round;stroke-miterlimit:10;}
	.st1{fill:none;stroke:#000000;stroke-width:2;stroke-miterlimit:10;}
</style><path d="M43.4,23.5c0.2,0.2,0.5,0.3,0.8,0.3c0.2,0,0.5-0.1,0.7-0.2c0.4-0.4,0.5-1,0.1-1.4l-0.9-1c-0.4-0.4-1-0.5-1.4-0.1  c-0.4,0.4-0.5,1-0.1,1.4L43.4,23.5z"/><path d="M60.4,23c0.2,0.2,0.5,0.3,0.8,0.3c0.2,0,0.5-0.1,0.7-0.2c0.4-0.4,0.5-1,0.1-1.4l-0.9-1c-0.4-0.4-1-0.5-1.4-0.1  c-0.4,0.4-0.5,1-0.1,1.4L60.4,23z"/><path d="M47.3,29.4c0.1,0,0.2,0,0.4-0.1l1.3-0.5c0.5-0.2,0.8-0.8,0.6-1.3c-0.2-0.5-0.8-0.8-1.3-0.6l-1.3,0.5  c-0.5,0.2-0.8,0.8-0.6,1.3C46.5,29.2,46.9,29.4,47.3,29.4z"/><path d="M31.5,24.4c0.1,0,0.2,0,0.4-0.1l1.3-0.5c0.5-0.2,0.8-0.8,0.6-1.3C33.5,22,33,21.8,32.4,22l-1.3,0.5  c-0.5,0.2-0.8,0.8-0.6,1.3C30.7,24.1,31.1,24.4,31.5,24.4z"/><path d="M52,24.1c0.1,0,0.2,0,0.4-0.1l1.3-0.5c0.5-0.2,0.8-0.8,0.6-1.3c-0.2-0.5-0.8-0.8-1.3-0.6l-1.3,0.5c-0.5,0.2-0.8,0.8-0.6,1.3  C51.2,23.9,51.6,24.1,52,24.1z"/><path d="M67.4,25.8c0.1,0,0.2,0,0.4-0.1l1.3-0.5c0.5-0.2,0.8-0.8,0.6-1.3c-0.2-0.5-0.8-0.8-1.3-0.6l-1.3,0.5  c-0.5,0.2-0.8,0.8-0.6,1.3C66.7,25.6,67,25.8,67.4,25.8z"/><path d="M36.7,27.8L38,28c0,0,0.1,0,0.1,0c0.5,0,0.9-0.4,1-0.9c0.1-0.5-0.3-1.1-0.8-1.1L37,25.8c-0.6-0.1-1.1,0.3-1.1,0.8  C35.7,27.2,36.1,27.7,36.7,27.8z"/><path d="M57.5,27.7l1.4,0.2c0,0,0.1,0,0.1,0c0.5,0,0.9-0.4,1-0.9c0.1-0.5-0.3-1.1-0.8-1.1l-1.4-0.2c-0.6-0.1-1.1,0.3-1.1,0.8  C56.6,27.1,57,27.6,57.5,27.7z"/><path d="M19.3,58.6c-2.5,2.5-2.1,5.5-2.1,5.7c0.1,0.5,0.5,0.9,1,0.9c1.1,0,1.8,0.2,2.4,0.4v5.8c-0.8,0.3-1.6,0.8-2.2,1.5  c-1,1.1-1.4,2.6-1.1,4.1l0.5,3.3c0.6,3.9,4,6.7,7.9,6.7h48.6c3.9,0,7.2-2.8,7.9-6.7l0.5-3.3c0.2-1.5-0.2-2.9-1.1-4.1  c-0.5-0.6-1.2-1.1-2-1.4v-5.9c0.6-0.2,1.2-0.3,2.2-0.3c0.5,0,1-0.4,1-1c0-0.1,0-2.9-2.2-5.5c2.4-0.6,4.1-2.8,4.1-5.4v-1.4  c0-2.9-2.3-5.3-5.2-5.5v-5.1c1.1-0.3,2.1-0.9,2.8-1.8c1-1.3,1.4-2.9,1-4.5l-0.2-0.9C80.4,22.8,70.6,15,59.1,15H40.6  c-11.8,0-22,8.4-24.2,20c-0.3,1.6,0.1,3.1,1.1,4.4c0.8,0.9,1.8,1.5,2.9,1.8v5.1c-2.9,0.2-5.2,2.6-5.2,5.5v1.4  C15.3,55.8,17,57.9,19.3,58.6z M80.1,74.1c0.6,0.7,0.8,1.6,0.7,2.4l-0.5,3.3c-0.5,2.9-3,5-5.9,5H25.7c-2.9,0-5.4-2.1-5.9-5l-0.5-3.3  c-0.1-0.9,0.1-1.8,0.7-2.4c0.5-0.6,1.1-0.9,1.8-1h24.5c2.9,0,5.7,1.1,7.7,3.2l4,4c0.2,0.2,0.5,0.3,0.7,0.3s0.5-0.1,0.7-0.3l4-4  c2.1-2.1,4.8-3.2,7.7-3.2h7.1C79,73.2,79.6,73.5,80.1,74.1z M22.6,71v-4.6c0.9,0.4,1.9,0.7,3.6,0.7c2.2,0,3.4-0.6,4.4-1.1  c1-0.5,1.8-0.9,3.5-0.9c1.7,0,2.6,0.4,3.5,0.9c1,0.5,2.2,1.1,4.4,1.1c2.2,0,3.4-0.6,4.4-1.1c1-0.5,1.8-0.9,3.5-0.9  c1.7,0,2.6,0.4,3.5,0.9c1,0.5,2.2,1.1,4.4,1.1s3.4-0.6,4.4-1.1c1-0.5,1.8-0.9,3.5-0.9c1.7,0,2.6,0.4,3.5,0.9c1,0.5,2.2,1.1,4.4,1.1  c1.8,0,2.9-0.4,3.8-0.8V71c0,0,0,0-0.1,0h-6.4c-3.5,0-6.7,1.3-9.2,3.8l-3.3,3.3l-3.3-3.3c-2.4-2.4-5.7-3.8-9.2-3.8H22.6z M80.7,63.2  c-1.5,0.2-2.5,0.6-3.3,1.1c-1,0.5-1.8,0.9-3.5,0.9c-1.7,0-2.6-0.4-3.5-0.9c-1-0.5-2.2-1.1-4.4-1.1c-2.2,0-3.4,0.6-4.4,1.1  c-1,0.5-1.8,0.9-3.5,0.9c-1.7,0-2.6-0.4-3.5-0.9c-1-0.5-2.2-1.1-4.4-1.1c-2.2,0-3.4,0.6-4.4,1.1c-1,0.5-1.8,0.9-3.5,0.9  c-1.7,0-2.6-0.4-3.5-0.9c-1-0.5-2.2-1.1-4.4-1.1c-2.2,0-3.4,0.6-4.4,1.1c-1,0.5-1.8,0.9-3.5,0.9c-1.7,0-2.6-0.4-3.5-0.9  c-0.9-0.4-1.8-0.9-3.4-1.1c0.2-2.6,2.2-4.3,2.3-4.4h56.4C77.9,58.8,79.9,60.1,80.7,63.2z M19.1,38.1c-0.6-0.8-0.9-1.8-0.7-2.7  C20.5,24.8,29.8,17,40.6,17h18.5c10.5,0,19.6,7.1,22,17.4l0.2,0.9c0.2,1,0,2-0.6,2.8c-0.6,0.8-1.6,1.3-2.6,1.3H21.7  C20.7,39.3,19.8,38.9,19.1,38.1z M77.5,41.3v4.9H53.6c-3.3,0-6.3,1.3-8.7,3.6l-3.5,3.5l-3.5-3.5c-2.3-2.3-5.4-3.6-8.7-3.6h-6.8v-4.9  H77.5z M17.3,51.8c0-2,1.6-3.6,3.6-3.6h0.7c0.1,0,0.1,0,0.2,0h7.5c2.7,0,5.3,1.1,7.2,3l4.2,4.2c0.2,0.2,0.4,0.3,0.7,0.3  s0.5-0.1,0.7-0.3l4.2-4.2c1.9-1.9,4.5-3,7.2-3h24.9c0.1,0,0.2,0,0.2,0c0.1,0.1,0.3,0.1,0.4,0.1c2,0,3.6,1.6,3.6,3.6v1.4  c0,2-1.6,3.6-3.6,3.6H20.9c-2,0-3.6-1.6-3.6-3.6V51.8z"/></svg>